PathFileType  4	(X/Y/Z) C:\MyRepositories_Xander\mocap-processing\Testing_HJC_Function\TRCs_w_HJCs
DataRate	CameraRate	NumFrames	NumMarkers	Units	OrigDataRate	OrigDataStartFrame	OrigNumFrames
  240.0		  240.0		    4		    151		 mm	  240.0	      1	    544
Frame#	Time	LFHD			RFHD			LBHD			C7			T10			CLAV			STRN			RBAK			LSHO			LUPA			LELB			LFRM			LWRA			LWRB			LFIN			RSHO			RUPA			RELB			RFRM			RWRA			RWRB			RFIN			LASI			RASI			LPSI			RPSI			SACR			LTHI			LKNE			LMKN			LTIB			LANK			LMED			LHEE			LTOE			RTHI			RKNE			RMKN			RTIB			RANK			RMED			RHEE			RTOE			PELO			PELA			PELL			PELP			LFEO			LFEA			LFEL			LFEP			LTIO			LTIA			LTIL			LTIP			LFOO			LFOA			LFOL			LFOP			LTOO			LTOA			LTOL			LTOP			RFEO			RFEA			RFEL			RFEP			RTIO			RTIA			RTIL			RTIP			RFOO			RFOA			RFOL			RFOP			RTOO			RTOA			RTOL			RTOP			HEDO			HEDA			HEDL			HEDP			LCLO			LCLA			LCLL			LCLP			RCLO			RCLA			RCLL			RCLP			TRXO			TRXA			TRXL			TRXP			LHUO			LHUA			LHUL			LHUP			LRAO			LRAA			LRAL			LRAP			LHNO			LHNA			LHNL			LHNP			RHUO			RHUA			RHUL			RHUP			RRAO			RRAA			RRAL			RRAP			RHNO			RHNA			RHNL			RHNP			RBHD			*120			*121			*122			LHipAngles			LKneeAngles			LAbsAnkleAngle			LAnkleAngles			RHipAngles			RKneeAngles			RAnkleAngles			RAbsAnkleAngle			LPelvisAngles			RPelvisAngles			LFootProgressAngles			RFootProgressAngles			RNeckAngles			LNeckAngles			RSpineAngles			LSpineAngles			LShoulderAngles			LElbowAngles			LWristAngles			RShoulderAngles			RElbowAngles			RWristAngles			RThoraxAngles			LThoraxAngles			RHeadAngles			LHeadAngles			RHJC			LHJC			
		X1	Y1	Z1	X2	Y2	Z2	X3	Y3	Z3	X4	Y4	Z4	X5	Y5	Z5	X6	Y6	Z6	X7	Y7	Z7	X8	Y8	Z8	X9	Y9	Z9	X10	Y10	Z10	X11	Y11	Z11	X12	Y12	Z12	X13	Y13	Z13	X14	Y14	Z14	X15	Y15	Z15	X16	Y16	Z16	X17	Y17	Z17	X18	Y18	Z18	X19	Y19	Z19	X20	Y20	Z20	X21	Y21	Z21	X22	Y22	Z22	X23	Y23	Z23	X24	Y24	Z24	X25	Y25	Z25	X26	Y26	Z26	X27	Y27	Z27	X28	Y28	Z28	X29	Y29	Z29	X30	Y30	Z30	X31	Y31	Z31	X32	Y32	Z32	X33	Y33	Z33	X34	Y34	Z34	X35	Y35	Z35	X36	Y36	Z36	X37	Y37	Z37	X38	Y38	Z38	X39	Y39	Z39	X40	Y40	Z40	X41	Y41	Z41	X42	Y42	Z42	X43	Y43	Z43	X44	Y44	Z44	X45	Y45	Z45	X46	Y46	Z46	X47	Y47	Z47	X48	Y48	Z48	X49	Y49	Z49	X50	Y50	Z50	X51	Y51	Z51	X52	Y52	Z52	X53	Y53	Z53	X54	Y54	Z54	X55	Y55	Z55	X56	Y56	Z56	X57	Y57	Z57	X58	Y58	Z58	X59	Y59	Z59	X60	Y60	Z60	X61	Y61	Z61	X62	Y62	Z62	X63	Y63	Z63	X64	Y64	Z64	X65	Y65	Z65	X66	Y66	Z66	X67	Y67	Z67	X68	Y68	Z68	X69	Y69	Z69	X70	Y70	Z70	X71	Y71	Z71	X72	Y72	Z72	X73	Y73	Z73	X74	Y74	Z74	X75	Y75	Z75	X76	Y76	Z76	X77	Y77	Z77	X78	Y78	Z78	X79	Y79	Z79	X80	Y80	Z80	X81	Y81	Z81	X82	Y82	Z82	X83	Y83	Z83	X84	Y84	Z84	X85	Y85	Z85	X86	Y86	Z86	X87	Y87	Z87	X88	Y88	Z88	X89	Y89	Z89	X90	Y90	Z90	X91	Y91	Z91	X92	Y92	Z92	X93	Y93	Z93	X94	Y94	Z94	X95	Y95	Z95	X96	Y96	Z96	X97	Y97	Z97	X98	Y98	Z98	X99	Y99	Z99	X100	Y100	Z100	X101	Y101	Z101	X102	Y102	Z102	X103	Y103	Z103	X104	Y104	Z104	X105	Y105	Z105	X106	Y106	Z106	X107	Y107	Z107	X108	Y108	Z108	X109	Y109	Z109	X110	Y110	Z110	X111	Y111	Z111	X112	Y112	Z112	X113	Y113	Z113	X114	Y114	Z114	X115	Y115	Z115	X116	Y116	Z116	X117	Y117	Z117	X118	Y118	Z118	X119	Y119	Z119	X120	Y120	Z120	X121	Y121	Z121	X122	Y122	Z122	X123	Y123	Z123	X124	Y124	Z124	X125	Y125	Z125	X126	Y126	Z126	X127	Y127	Z127	X128	Y128	Z128	X129	Y129	Z129	X130	Y130	Z130	X131	Y131	Z131	X132	Y132	Z132	X133	Y133	Z133	X134	Y134	Z134	X135	Y135	Z135	X136	Y136	Z136	X137	Y137	Z137	X138	Y138	Z138	X139	Y139	Z139	X140	Y140	Z140	X141	Y141	Z141	X142	Y142	Z142	X143	Y143	Z143	X144	Y144	Z144	X145	Y145	Z145	X146	Y146	Z146	X147	Y147	Z147	X148	Y148	Z148	X149	Y149	Z149	X150	Y150	Z150	X151	Y151	Z151	

1	0.00000	-559.055	1653.851	204.803	-413.096	1656.430	207.047	-513.832	1543.947	330.011	-482.946	1423.411	346.761	-474.441	1215.249	386.601	-486.154	1366.682	204.357	-477.909	1148.334	152.219	-396.172	1357.348	382.720	-644.898	1415.648	317.449	-730.490	1269.476	346.895	-814.335	1202.556	347.732	-903.345	1139.076	365.274	-1005.316	1101.059	374.707	-976.563	1050.524	365.550	-1036.825	1027.609	401.157	-319.240	1416.107	326.820	-250.921	1265.754	345.263	-195.816	1175.617	347.767	-96.007	1102.346	350.593	4.645	1061.175	348.896	-29.342	1028.557	351.113	32.581	997.592	376.770	-607.935	947.842	198.424	-349.850	930.235	212.665	-540.063	994.577	383.293	-424.725	985.053	387.672	-486.530	969.161	399.622	-701.102	664.223	284.255	-679.293	495.287	329.271	-549.584	469.451	335.945	-723.992	266.893	352.957	-685.124	95.666	374.753	-605.136	99.950	347.655	-645.297	86.547	425.484	-663.118	71.007	219.245	-260.953	640.358	295.455	-261.386	493.848	309.113	-392.850	462.956	321.691	-184.314	267.647	355.162	-192.994	94.897	357.161	-276.740	97.119	349.393	-230.627	84.947	424.572	-216.720	65.424	217.571	-487.815	855.898	264.449	-479.832	828.026	85.324	-668.577	868.230	254.475	-474.110	1034.777	237.226	-614.694	488.278	325.289	-644.648	425.190	-49.550	-993.049	529.330	348.614	-578.196	862.064	259.462	-649.132	97.594	362.560	-766.742	74.493	11.743	-999.211	139.386	477.171	-616.726	465.232	327.488	-675.810	86.140	221.953	-652.687	285.313	219.955	-874.243	109.349	239.100	-658.547	86.140	421.729	-681.565	86.140	155.362	-673.857	152.531	154.695	-747.709	93.877	161.077	-675.810	86.140	221.953	-323.654	482.352	316.922	-360.065	426.976	-54.930	-692.297	414.294	363.154	-397.434	849.733	269.437	-231.814	95.927	353.560	-197.883	68.567	-20.061	-596.286	6.785	326.988	-318.423	460.342	319.009	-206.434	86.303	212.009	-254.032	281.868	208.811	-401.560	38.598	198.900	-219.927	86.303	412.856	-201.937	86.303	145.060	-217.803	151.492	143.994	-266.978	70.401	140.690	-206.434	86.303	212.009	NaN	NaN	NaN	NaN	NaN	NaN	NaN	NaN	NaN	NaN	NaN	NaN	-648.302	1359.591	307.698	-744.234	1393.122	148.425	-637.018	1545.395	340.018	-485.930	1366.489	211.351	-314.620	1361.248	316.565	-210.590	1401.300	149.178	-298.028	1164.238	279.736	-485.930	1366.489	211.351	-485.930	1366.489	211.351	-492.166	1371.863	16.505	-291.160	1374.312	205.333	-478.281	1171.700	205.734	-799.484	1189.227	308.350	-665.689	1069.960	167.799	-904.952	1282.133	129.115	-648.302	1359.591	307.698	-993.082	1075.779	363.465	-930.967	910.366	241.172	-1092.583	1163.429	194.371	-813.035	1181.285	312.208	-1093.606	978.319	402.109	-1044.301	981.622	538.692	-1001.080	870.675	371.312	-993.082	1075.779	363.465	-209.181	1171.025	304.254	-385.056	1079.372	214.135	-282.696	1117.466	502.196	-314.620	1361.248	316.565	-11.574	1043.594	343.165	-110.363	864.393	257.987	-86.374	989.099	544.567	-195.349	1162.105	306.978	81.086	944.467	372.279	65.605	969.811	507.843	183.234	1038.228	366.415	-11.574	1043.594	343.165	NaN	NaN	NaN	-479.216	1382.239	354.486	NaN	NaN	NaN	NaN	NaN	NaN	1.103	-6.954	1.378	-0.816	-14.491	4.471	0.000	0.000	-4.975	0.006	13.165	-5.110	15.521	8.366	-2.016	2.230	-11.341	1.686	-0.006	0.237	-4.371	0.000	0.000	-4.371	-4.332	2.529	-8.654	4.332	-2.529	-8.654	6.647	-4.939	90.000	13.709	-3.843	90.000	NaN	NaN	NaN	NaN	NaN	NaN	6.869	-3.941	10.131	-6.869	3.941	10.131	-43.866	-125.684	0.129	0.000	-0.000	-22.474	-9.357	115.863	9.629	-26.755	-115.316	-0.970	0.000	-0.000	-30.797	-8.101	117.224	11.613	-2.248	1.834	1.652	2.248	-1.834	1.652	NaN	NaN	NaN	NaN	NaN	NaN	-395.200	860.782	285.151	-565.488	874.844	278.685
2	0.00417	-559.064	1653.836	204.936	-411.099	1656.848	211.649	-514.514	1544.504	330.207	-483.002	1423.491	346.858	-474.398	1215.265	386.580	-486.336	1366.633	204.309	-476.644	1148.475	152.701	-396.093	1357.330	382.742	-644.917	1415.705	317.449	-730.161	1269.363	346.781	-814.168	1202.401	347.665	-903.140	1138.911	365.054	-1005.142	1100.970	374.392	-976.426	1050.428	365.210	-1036.716	1027.509	400.818	-318.707	1415.793	326.489	-250.989	1265.741	345.266	-195.778	1175.576	347.588	-96.000	1102.276	350.377	4.799	1061.002	348.621	-29.405	1028.449	350.831	32.546	997.448	376.432	-607.824	947.750	198.264	-349.865	930.223	212.541	-540.091	994.544	383.180	-424.793	985.121	387.634	-486.399	969.104	399.427	-701.100	664.265	284.174	-679.297	495.358	329.211	-549.596	469.518	335.914	-723.986	266.930	352.929	-685.132	95.675	374.754	-605.253	99.524	347.109	-645.282	86.559	425.477	-663.111	71.048	219.259	-260.965	640.352	295.446	-261.446	493.890	309.136	-392.829	462.951	321.645	-184.334	267.665	355.120	-193.018	94.860	357.126	-276.832	97.314	349.605	-230.595	85.001	424.570	-216.971	65.331	217.509	-487.754	855.848	264.312	-479.735	827.964	85.190	-668.517	868.130	254.308	-474.093	1034.728	237.077	-614.701	488.330	325.204	-644.814	425.198	-49.507	-992.929	529.481	348.665	-578.135	861.989	259.310	-649.211	97.406	362.323	-769.330	74.754	12.085	-998.676	139.378	479.461	-616.736	465.283	327.392	-675.904	85.962	221.718	-652.657	285.120	219.708	-874.321	109.295	238.873	-658.631	85.962	421.493	-681.661	85.962	155.126	-673.912	152.348	154.456	-747.800	93.739	160.845	-675.904	85.962	221.718	-323.720	482.411	316.917	-359.952	426.964	-54.849	-692.312	414.469	362.972	-397.372	849.708	269.314	-231.846	95.997	353.642	-199.125	68.259	-20.065	-596.426	6.908	328.333	-318.487	460.401	319.009	-206.663	86.371	212.055	-254.235	281.943	208.925	-401.813	38.695	199.215	-219.879	86.371	412.920	-202.257	86.371	145.100	-218.115	151.561	144.057	-267.307	70.479	140.820	-206.663	86.371	212.055	NaN	NaN	NaN	NaN	NaN	NaN	NaN	NaN	NaN	NaN	NaN	NaN	-648.354	1359.648	307.712	-744.330	1393.174	148.575	-636.967	1545.361	339.970	-486.124	1366.447	211.303	-314.292	1360.893	316.366	-210.288	1400.239	148.346	-298.406	1163.367	279.943	-486.124	1366.447	211.303	-486.124	1366.447	211.303	-492.042	1371.628	16.301	-291.233	1374.968	205.615	-477.761	1171.542	205.870	-799.292	1189.103	308.281	-664.907	1069.701	168.454	-904.299	1281.438	128.515	-648.354	1359.648	307.712	-992.922	1075.695	363.136	-930.355	910.034	241.499	-1091.976	1162.795	193.561	-812.846	1181.165	312.121	-1093.547	978.223	401.760	-1044.204	981.432	538.409	-1001.039	870.488	370.886	-992.922	1075.695	363.136	-209.214	1170.951	304.101	-384.949	1079.517	214.508	-282.327	1117.737	501.819	-314.292	1360.893	316.366	-11.533	1043.453	342.886	-110.535	864.137	258.015	-86.093	989.187	544.516	-195.376	1162.026	306.816	80.939	944.323	371.878	65.606	969.629	507.314	183.078	1037.871	365.962	-11.533	1043.453	342.886	NaN	NaN	NaN	-479.118	1382.220	354.491	NaN	NaN	NaN	NaN	NaN	NaN	1.128	-6.991	1.390	-0.825	-14.870	4.508	0.000	0.000	-4.949	0.005	13.559	-5.091	15.491	8.349	-2.001	2.252	-11.125	1.692	-0.006	0.117	-4.402	0.000	0.000	-4.402	-4.318	2.540	-8.657	4.318	-2.540	-8.657	6.682	-4.941	90.000	13.700	-3.764	90.000	NaN	NaN	NaN	NaN	NaN	NaN	7.042	-3.824	10.089	-7.042	3.824	10.089	-43.996	-125.567	0.131	-0.000	-0.000	-22.520	-9.350	115.602	9.630	-26.501	-115.161	-1.061	-0.000	-0.000	-30.820	-8.099	117.147	11.680	-2.456	1.739	1.597	2.456	-1.739	1.597	NaN	NaN	NaN	NaN	NaN	NaN	-395.175	860.893	285.115	-565.386	874.804	278.540
3	0.00833	-559.061	1653.844	205.052	-411.690	1656.609	208.637	-513.662	1544.004	330.258	-482.860	1423.444	346.867	-474.355	1215.285	386.564	-486.505	1366.917	204.199	-478.115	1148.655	152.393	-396.040	1357.333	382.770	-644.770	1415.617	317.433	-730.039	1269.359	346.753	-813.995	1202.278	347.611	-902.961	1138.755	364.856	-1005.196	1101.029	374.189	-976.296	1050.319	364.884	-1036.590	1027.394	400.452	-318.721	1415.938	326.707	-250.944	1265.760	345.232	-195.789	1175.607	347.515	-96.028	1102.257	350.226	4.905	1060.768	348.240	-29.460	1028.350	350.603	32.455	997.291	376.171	-607.798	947.819	198.117	-349.837	930.267	212.470	-540.139	994.813	383.233	-424.735	985.090	387.486	-486.475	969.146	399.384	-701.053	664.261	284.030	-679.378	495.341	329.154	-549.789	469.456	335.389	-723.975	266.950	352.885	-685.103	95.706	374.738	-605.103	99.996	347.572	-645.298	86.581	425.466	-663.220	71.331	219.395	-260.980	640.357	295.451	-261.404	493.948	309.123	-392.853	462.958	321.608	-184.359	267.663	355.052	-193.124	94.652	357.071	-276.787	97.311	349.586	-230.660	84.997	424.609	-216.941	65.418	217.449	-487.752	855.897	264.189	-479.681	828.038	85.065	-668.511	868.196	254.131	-474.066	1034.780	236.984	-614.780	488.308	325.203	-644.601	424.999	-49.615	-993.135	529.499	348.348	-578.131	862.047	259.160	-649.120	97.636	362.519	-766.974	74.495	11.804	-999.109	139.371	477.375	-616.805	465.261	327.404	-675.875	86.180	221.927	-652.783	285.356	219.919	-874.302	109.359	239.185	-658.501	86.180	421.694	-681.666	86.180	155.339	-673.968	152.572	154.669	-747.808	93.907	161.091	-675.875	86.180	221.927	-323.682	482.456	316.854	-359.611	427.025	-54.952	-692.304	414.435	362.615	-397.372	849.747	269.217	-231.949	95.886	353.597	-199.388	68.079	-20.239	-596.700	6.939	328.444	-318.459	460.443	318.946	-206.710	86.252	212.021	-254.190	281.846	208.877	-401.878	38.668	199.096	-220.013	86.252	412.881	-202.276	86.252	145.068	-218.103	151.450	144.020	-267.332	70.390	140.760	-206.710	86.252	212.021	NaN	NaN	NaN	NaN	NaN	NaN	NaN	NaN	NaN	NaN	NaN	NaN	-648.091	1359.553	307.695	-744.234	1392.822	148.947	-637.104	1545.007	339.906	-486.267	1366.728	211.193	-314.279	1361.057	316.496	-210.045	1400.773	148.392	-298.274	1163.342	279.708	-486.267	1366.728	211.193	-486.267	1366.728	211.193	-492.896	1372.001	16.229	-291.385	1374.631	204.780	-478.544	1171.812	205.658	-799.039	1188.913	308.280	-664.085	1069.057	169.263	-903.471	1280.674	127.787	-648.091	1359.553	307.695	-992.880	1075.681	362.869	-929.900	909.589	241.990	-1091.370	1162.220	192.648	-812.608	1180.987	312.101	-1093.328	978.050	401.290	-1044.028	981.082	537.885	-1000.712	870.548	370.250	-992.880	1075.681	362.869	-209.267	1171.010	304.037	-385.178	1079.677	214.516	-282.261	1117.709	501.854	-314.279	1361.057	316.496	-11.530	1043.269	342.582	-110.800	863.975	257.641	-85.988	988.899	544.363	-195.425	1162.068	306.735	80.658	944.064	371.673	65.673	969.808	506.948	182.948	1037.242	365.272	-11.530	1043.269	342.582	NaN	NaN	NaN	-479.077	1382.262	354.519	NaN	NaN	NaN	NaN	NaN	NaN	1.129	-6.959	1.420	-0.853	-14.556	4.495	0.000	0.000	-4.980	0.006	13.174	-5.115	15.504	8.318	-1.991	2.221	-11.052	1.701	-0.007	0.067	-4.399	0.000	0.000	-4.399	-4.325	2.556	-8.647	4.325	-2.556	-8.647	6.638	-4.971	90.000	13.673	-3.789	90.000	NaN	NaN	NaN	NaN	NaN	NaN	6.902	-4.080	10.086	-6.902	4.080	10.086	-43.795	-125.119	0.017	0.000	-0.000	-22.541	-9.398	115.265	9.809	-26.663	-115.304	-0.986	-0.000	-0.000	-30.804	-8.232	117.354	11.694	-2.268	1.948	1.627	2.268	-1.948	1.627	NaN	NaN	NaN	NaN	NaN	NaN	-395.205	860.645	284.785	-565.398	874.984	278.513
4	0.01250	-559.026	1653.874	205.181	-412.785	1656.604	207.290	-513.559	1544.032	330.347	-482.733	1423.431	346.865	-474.307	1215.288	386.548	-486.524	1366.942	204.237	-478.069	1148.688	152.314	-395.967	1357.324	382.801	-644.690	1415.625	317.487	-729.926	1269.219	346.701	-813.781	1202.151	347.520	-902.759	1138.610	364.659	-1005.021	1100.913	373.894	-976.074	1050.357	364.781	-1036.395	1027.191	400.056	-318.409	1415.888	326.666	-250.777	1265.801	345.149	-195.728	1175.513	347.328	-95.988	1102.154	349.987	4.772	1060.791	348.142	-29.473	1028.193	350.242	32.398	997.106	375.875	-607.943	948.177	198.118	-349.826	930.263	212.386	-540.141	994.700	383.019	-424.775	985.092	387.393	-486.537	969.029	399.236	-701.181	664.444	284.007	-679.259	495.398	329.082	-549.770	469.475	335.307	-724.062	266.997	352.763	-685.086	95.747	374.741	-605.205	99.682	347.075	-645.258	86.614	425.464	-663.170	71.519	219.458	-260.990	640.359	295.422	-261.438	493.904	309.045	-392.847	462.978	321.592	-184.384	267.642	354.989	-193.085	94.761	357.097	-276.813	97.320	349.583	-230.671	85.041	424.629	-216.904	65.492	217.406	-487.910	855.998	264.026	-479.921	828.395	84.859	-668.656	868.543	254.034	-474.004	1034.904	237.083	-614.663	488.398	325.033	-645.014	425.169	-49.855	-993.101	529.410	348.754	-578.283	862.270	259.030	-649.170	97.516	362.302	-769.333	74.736	12.117	-998.590	139.535	479.468	-616.697	465.352	327.231	-675.932	86.074	221.710	-652.662	285.229	219.687	-874.339	109.432	238.961	-658.563	86.074	421.477	-681.722	86.074	155.121	-673.965	152.459	154.447	-747.858	93.860	160.872	-675.932	86.074	221.710	-323.724	482.377	316.662	-358.977	427.054	-55.306	-692.469	414.133	361.759	-397.536	849.726	269.021	-231.911	95.948	353.613	-199.231	67.978	-20.101	-596.531	6.905	328.392	-318.495	460.367	318.767	-206.640	86.319	212.042	-254.183	281.898	208.883	-401.788	38.671	199.077	-219.984	86.319	412.899	-202.191	86.319	145.090	-218.039	151.512	144.037	-267.241	70.436	140.768	-206.640	86.319	212.042	NaN	NaN	NaN	NaN	NaN	NaN	NaN	NaN	NaN	NaN	NaN	NaN	-648.019	1359.564	307.733	-744.161	1392.876	149.083	-637.012	1544.932	339.985	-486.284	1366.750	211.231	-314.003	1361.003	316.455	-209.826	1400.693	148.058	-298.116	1163.070	279.632	-486.284	1366.750	211.231	-486.284	1366.750	211.231	-492.992	1372.083	16.204	-291.337	1374.655	204.741	-478.564	1171.768	205.634	-798.920	1188.922	308.107	-664.095	1069.390	168.737	-903.519	1281.027	127.925	-648.019	1359.564	307.733	-992.671	1075.621	362.668	-929.840	909.795	241.427	-1091.311	1162.478	192.752	-812.482	1180.992	311.926	-1092.991	977.677	400.645	-1044.322	980.881	537.469	-999.895	870.457	370.041	-992.671	1075.621	362.667	-209.172	1170.986	303.832	-385.029	1079.922	214.182	-282.248	1117.541	501.466	-314.003	1361.003	316.455	-11.578	1043.239	342.348	-110.782	864.131	257.232	-86.117	988.725	543.937	-195.340	1162.044	306.529	80.741	943.925	371.294	65.209	968.973	506.776	183.015	1037.377	365.741	-11.578	1043.239	342.348	NaN	NaN	NaN	-479.419	1382.096	355.209	NaN	NaN	NaN	NaN	NaN	NaN	1.015	-7.005	1.487	-0.796	-14.841	4.499	0.000	0.000	-4.969	0.006	13.539	-5.111	15.595	8.181	-1.905	2.213	-10.961	1.674	-0.007	0.067	-4.426	0.000	0.000	-4.426	-4.395	2.531	-8.564	4.395	-2.531	-8.564	6.689	-4.969	90.000	13.692	-3.801	90.000	NaN	NaN	NaN	NaN	NaN	NaN	6.972	-4.080	10.016	-6.972	4.080	10.016	-43.783	-125.209	-0.038	-0.000	0.000	-22.556	-9.341	115.583	9.977	-26.627	-115.368	-1.006	-0.000	-0.000	-30.838	-8.167	117.045	11.690	-2.266	1.971	1.644	2.266	-1.971	1.644	NaN	NaN	NaN	NaN	NaN	NaN	-395.227	860.867	284.837	-565.542	875.051	278.379
